<?xml version="1.0" encoding="utf-8"?>
<!-- Generator: Adobe Illustrator 21.0.0, SVG Export Plug-In . SVG Version: 6.00 Build 0)  -->
<svg version="1.1" id="Camada_1" xmlns="http://www.w3.org/2000/svg" xmlns:xlink="http://www.w3.org/1999/xlink" x="0px" y="0px"
	 viewBox="0 0 68 53.6" style="enable-background:new 0 0 68 53.6;" xml:space="preserve">
<style type="text/css">
	.st0{fill:none;stroke:url(#SVGID_1_);stroke-width:3;stroke-miterlimit:10;}
</style>
<linearGradient id="SVGID_1_" gradientUnits="userSpaceOnUse" x1="0" y1="26.7778" x2="68" y2="26.7778">
	<stop  offset="0" style="stop-color:#0A72B8"/>
	<stop  offset="1" style="stop-color:#22B3E8"/>
</linearGradient>
<path class="st0" d="M48.4,19.6c0-10-10.5-18.1-23.5-18.1S1.5,9.6,1.5,19.6c0,3.9,1.6,7.4,4.3,10.4c-1.5,3.4-4,6.1-4,6.2
	c-0.2,0.3-0.3,0.6-0.2,1c0.1,0.3,0.5,0.5,0.8,0.5c4.1,0,7.5-1.4,10-2.8c3.6,1.8,7.9,2.8,12.6,2.8C37.9,37.6,48.4,29.5,48.4,19.6z
	 M62.2,44.4c2.7-2.9,4.3-6.5,4.3-10.4c0-7.5-6-14-14.6-16.7c0.1,0.7,0.1,1.5,0.1,2.3c0,12-12.2,21.7-27.1,21.7
	c-1.2,0-2.4-0.1-3.6-0.2c3.6,6.5,11.9,11,21.6,11c4.6,0,8.9-1,12.6-2.8c2.5,1.4,5.9,2.8,10,2.8c0.4,0,0.7-0.2,0.8-0.5
	c0.1-0.3,0.1-0.7-0.2-1C66.2,50.5,63.7,47.8,62.2,44.4z"/>
</svg>
