<?xml version="1.0" encoding="utf-8"?>
<!-- Generator: Adobe Illustrator 16.0.0, SVG Export Plug-In . SVG Version: 6.00 Build 0)  -->
<!DOCTYPE svg PUBLIC "-//W3C//DTD SVG 1.1//EN" "http://www.w3.org/Graphics/SVG/1.1/DTD/svg11.dtd">
<svg version="1.1" id="Layer_1" xmlns="http://www.w3.org/2000/svg" xmlns:xlink="http://www.w3.org/1999/xlink" x="0px" y="0px"
	 width="418.797px" height="142.991px" viewBox="0 0 418.797 142.991" enable-background="new 0 0 418.797 142.991"
	 xml:space="preserve">
<g>
	<polygon fill="#27235E" points="409.89,111.849 314.955,142.991 305.042,29.683 400.378,0 	"/>
	<polygon fill="#E48B6D" points="409.89,111.849 314.955,142.991 305.042,29.683 400.574,2.267 	"/>
	<polygon fill="#27235E" points="414.346,122.882 314.955,142.991 305.139,30.817 404.532,7.627 	"/>
	<polygon fill="#DF7253" points="414.249,121.747 314.854,141.861 305.042,29.683 404.734,11.432 	"/>
	<polygon fill="#27235E" points="418.797,133.907 314.955,142.991 305.139,30.817 408.689,16.794 	"/>
	<polygon fill="#F2634B" points="418.793,133.9 324.41,142.16 314.957,142.991 305.046,29.684 384.309,22.741 408.887,20.595 	"/>
	<linearGradient id="SVGID_1_" gradientUnits="userSpaceOnUse" x1="329.0747" y1="80.3516" x2="423.4242" y2="82.9294">
		<stop  offset="0" style="stop-color:#F48267"/>
		<stop  offset="1" style="stop-color:#F2634B"/>
	</linearGradient>
	<path fill="url(#SVGID_1_)" d="M418.793,133.9l-94.384,8.26c3.716-5.719,8.229-11.978,13.714-18.765
		c18.626-23.04,35.145-66.512,46.186-100.654l24.578-2.146L418.793,133.9z"/>
	<g>
		<path fill="#27235E" d="M328.903,80.235l28.172-2.462l-2.466-28.167l9.64-0.844l2.463,28.167l28.166-2.464l0.844,9.636
			l-28.169,2.467l2.463,28.164l-9.634,0.846l-2.468-28.166l-28.164,2.46L328.903,80.235z"/>
	</g>
	<g>
		<g>
			<path fill="#FFFFFF" d="M0,30.056h54.958v16.452H17.824v16.401h35.077v16.453H17.824v17.771h39.188v16.453H0V30.056z"/>
			<path fill="#FFFFFF" d="M95.974,72.822c-2.513-3.123-5.828-4.685-9.94-4.685c-1.448,0-2.856,0.342-4.228,1.028
				c-1.371,0.686-2.056,1.869-2.056,3.542c0,1.371,0.703,2.381,2.113,3.028c1.408,0.649,3.197,1.219,5.37,1.713
				c2.169,0.498,4.494,1.029,6.969,1.601c2.474,0.568,4.799,1.469,6.971,2.683c2.168,1.221,3.96,2.877,5.367,4.972
				c1.409,2.097,2.116,4.896,2.116,8.397c0,3.581-0.783,6.53-2.344,8.854c-1.559,2.323-3.56,4.191-5.997,5.601
				c-2.438,1.409-5.182,2.397-8.228,2.97s-6.054,0.854-9.024,0.854c-3.885,0-7.81-0.551-11.77-1.656
				c-3.959-1.101-7.312-3.064-10.055-5.882l10.397-11.54c1.6,1.981,3.372,3.485,5.314,4.51c1.943,1.03,4.207,1.544,6.799,1.544
				c1.98,0,3.771-0.284,5.367-0.856c1.601-0.569,2.402-1.616,2.402-3.141c0-1.447-0.707-2.533-2.116-3.258
				c-1.412-0.721-3.199-1.33-5.369-1.824c-2.171-0.496-4.497-1.032-6.971-1.6c-2.476-0.574-4.798-1.429-6.968-2.573
				c-2.172-1.142-3.961-2.759-5.373-4.856c-1.409-2.093-2.111-4.893-2.111-8.396c0-3.274,0.666-6.094,1.999-8.457
				c1.332-2.359,3.084-4.301,5.253-5.826c2.173-1.522,4.666-2.645,7.486-3.37c2.817-0.724,5.674-1.085,8.569-1.085
				c3.655,0,7.35,0.533,11.083,1.6c3.73,1.067,6.893,2.971,9.482,5.711L95.974,72.822z"/>
			<path fill="#FFFFFF" d="M150.474,74.422c-0.84-1.218-2.019-2.228-3.545-3.028c-1.522-0.8-3.159-1.201-4.911-1.201
				c-4.343,0-7.713,1.297-10.11,3.885c-2.402,2.592-3.599,5.98-3.599,10.171s1.197,7.58,3.599,10.165
				c2.397,2.593,5.767,3.887,10.11,3.887c1.903,0,3.542-0.418,4.911-1.257c1.375-0.837,2.554-1.827,3.545-2.972l11.311,11.882
				c-2.669,2.744-5.806,4.669-9.425,5.77c-3.619,1.105-7.066,1.656-10.342,1.656c-4.267,0-8.283-0.683-12.052-2.055
				c-3.771-1.37-7.048-3.329-9.829-5.883c-2.778-2.548-4.969-5.615-6.568-9.198c-1.6-3.578-2.398-7.58-2.398-11.995
				c0-4.417,0.798-8.417,2.398-11.998c1.6-3.58,3.79-6.646,6.568-9.199c2.781-2.55,6.058-4.513,9.829-5.884
				c3.769-1.372,7.785-2.056,12.052-2.056c3.276,0,6.724,0.553,10.342,1.655c3.619,1.105,6.755,3.03,9.425,5.771L150.474,74.422z"/>
			<path fill="#FFFFFF" d="M161.325,84.249c0-4.417,0.801-8.417,2.4-11.998c1.6-3.58,3.789-6.646,6.569-9.199
				c2.781-2.55,6.054-4.513,9.827-5.884c3.769-1.372,7.786-2.056,12.055-2.056c4.263,0,8.281,0.684,12.052,2.056
				c3.77,1.371,7.043,3.334,9.83,5.884c2.776,2.553,4.965,5.619,6.564,9.199c1.6,3.581,2.399,7.581,2.399,11.998
				c0,4.415-0.8,8.417-2.399,11.995c-1.6,3.583-3.788,6.65-6.564,9.198c-2.786,2.554-6.06,4.513-9.83,5.883
				c-3.771,1.372-7.789,2.055-12.052,2.055c-4.269,0-8.286-0.683-12.055-2.055c-3.773-1.37-7.045-3.329-9.827-5.883
				c-2.781-2.548-4.97-5.615-6.569-9.198C162.125,92.666,161.325,88.664,161.325,84.249z M178.464,84.249
				c0,4.19,1.198,7.58,3.599,10.165c2.4,2.593,5.769,3.887,10.113,3.887c4.339,0,7.709-1.294,10.107-3.887
				c2.401-2.585,3.602-5.975,3.602-10.165s-1.201-7.579-3.602-10.171c-2.398-2.587-5.768-3.885-10.107-3.885
				c-4.345,0-7.713,1.297-10.113,3.885C179.662,76.67,178.464,80.059,178.464,84.249z"/>
			<path fill="#FFFFFF" d="M228.736,30.056h17.136v83.324h-17.136V30.056z"/>
			<path fill="#FFFFFF" d="M288.488,105.042h-0.228c-1.905,2.972-4.435,5.102-7.599,6.396c-3.16,1.296-6.491,1.942-9.999,1.942
				c-2.588,0-5.082-0.359-7.479-1.084c-2.401-0.724-4.51-1.81-6.342-3.255c-1.83-1.446-3.277-3.239-4.342-5.371
				c-1.068-2.131-1.6-4.608-1.6-7.426c0-3.199,0.59-5.902,1.771-8.113c1.182-2.206,2.781-4.035,4.799-5.482
				c2.019-1.446,4.322-2.57,6.91-3.371c2.59-0.8,5.275-1.389,8.057-1.77c2.783-0.381,5.562-0.61,8.34-0.687
				c2.781-0.075,5.35-0.114,7.712-0.114c0-3.046-1.086-5.464-3.255-7.256c-2.17-1.788-4.743-2.684-7.712-2.684
				c-2.817,0-5.391,0.591-7.712,1.771c-2.323,1.183-4.397,2.799-6.228,4.855l-9.14-9.369c3.201-2.969,6.927-5.197,11.197-6.683
				c4.266-1.485,8.68-2.227,13.251-2.227c5.029,0,9.157,0.627,12.398,1.885c3.24,1.257,5.828,3.104,7.771,5.541
				c1.941,2.439,3.289,5.426,4.053,8.969c0.763,3.542,1.145,7.638,1.145,12.282v29.59h-15.769V105.042z M284.261,87.676
				c-1.294,0-2.913,0.057-4.854,0.172c-1.942,0.114-3.811,0.44-5.599,0.968c-1.793,0.539-3.314,1.336-4.571,2.402
				c-1.255,1.066-1.886,2.554-1.886,4.456c0,2.055,0.875,3.576,2.627,4.569c1.751,0.988,3.58,1.482,5.488,1.482
				c1.673,0,3.292-0.226,4.85-0.683c1.563-0.458,2.952-1.104,4.173-1.942c1.218-0.836,2.189-1.905,2.913-3.199
				c0.729-1.294,1.086-2.815,1.086-4.571v-3.654H284.261z"/>
		</g>
	</g>
	<g>
		<path fill="#B7B7B7" d="M62.842,29.602h6.271c2.192,0,3.922,0.477,5.191,1.431c1.268,0.955,1.903,2.396,1.903,4.323
			c0,1.929-0.635,3.375-1.903,4.339c-1.269,0.964-2.999,1.446-5.191,1.446h-4.08v10.017h-2.192V29.602z M65.034,39.131h3.532
			c0.974,0,1.801-0.101,2.481-0.304s1.223-0.472,1.629-0.807c0.406-0.335,0.7-0.73,0.883-1.188c0.183-0.457,0.274-0.948,0.274-1.477
			c0-0.507-0.091-0.989-0.274-1.446c-0.183-0.457-0.477-0.857-0.883-1.203c-0.406-0.345-0.949-0.614-1.629-0.807
			c-0.68-0.192-1.507-0.289-2.481-0.289h-3.532V39.131z"/>
		<path fill="#B7B7B7" d="M87.38,51.157h-2.192V29.602h6.637c2.192,0,3.922,0.477,5.191,1.431c1.268,0.955,1.903,2.396,1.903,4.323
			c0,1.502-0.472,2.766-1.416,3.791c-0.944,1.025-2.309,1.619-4.095,1.781l6.21,10.229H96.94l-5.906-10.017H87.38V51.157z
			 M87.38,39.131h3.897c0.974,0,1.801-0.101,2.481-0.304c0.68-0.203,1.222-0.472,1.628-0.807c0.406-0.335,0.7-0.73,0.883-1.188
			c0.183-0.457,0.274-0.948,0.274-1.477c0-0.507-0.091-0.989-0.274-1.446c-0.183-0.457-0.478-0.857-0.883-1.203
			c-0.406-0.345-0.949-0.614-1.628-0.807c-0.681-0.192-1.507-0.289-2.481-0.289H87.38V39.131z"/>
		<path fill="#B7B7B7" d="M129.12,40.379c0,1.644-0.285,3.157-0.853,4.537c-0.568,1.38-1.354,2.573-2.359,3.577
			c-1.005,1.005-2.192,1.792-3.562,2.359c-1.37,0.568-2.857,0.853-4.46,0.853s-3.09-0.284-4.46-0.853
			c-1.37-0.568-2.558-1.354-3.562-2.359c-1.005-1.004-1.792-2.197-2.359-3.577c-0.569-1.38-0.853-2.893-0.853-4.537
			s0.284-3.156,0.853-4.536c0.568-1.38,1.354-2.573,2.359-3.577c1.004-1.005,2.192-1.791,3.562-2.36
			c1.37-0.568,2.856-0.852,4.46-0.852s3.09,0.284,4.46,0.852c1.37,0.569,2.557,1.355,3.562,2.36
			c1.005,1.004,1.791,2.197,2.359,3.577C128.835,37.224,129.12,38.735,129.12,40.379z M126.746,40.379
			c0-1.238-0.203-2.42-0.609-3.547c-0.406-1.126-0.99-2.116-1.751-2.968c-0.761-0.853-1.689-1.532-2.786-2.04
			c-1.096-0.507-2.334-0.761-3.714-0.761s-2.618,0.254-3.714,0.761c-1.096,0.507-2.025,1.187-2.786,2.04
			c-0.761,0.853-1.345,1.842-1.75,2.968c-0.406,1.126-0.609,2.309-0.609,3.547c0,1.238,0.203,2.42,0.609,3.547
			c0.406,1.126,0.99,2.116,1.75,2.969c0.761,0.853,1.69,1.533,2.786,2.04c1.096,0.508,2.333,0.761,3.714,0.761
			s2.619-0.253,3.714-0.761c1.096-0.507,2.025-1.187,2.786-2.04c0.761-0.853,1.345-1.842,1.751-2.969
			C126.542,42.8,126.746,41.618,126.746,40.379z"/>
		<path fill="#B7B7B7" d="M138.071,46.743c0.204,0.914,0.581,1.634,1.131,2.162c0.55,0.528,1.314,0.792,2.293,0.792
			c0.795,0,1.442-0.157,1.941-0.472c0.5-0.314,0.887-0.72,1.162-1.218c0.275-0.497,0.464-1.066,0.565-1.705
			c0.102-0.639,0.153-1.294,0.153-1.964V29.602h2.192v15.649c0,0.73-0.097,1.477-0.289,2.238c-0.193,0.761-0.528,1.451-1.005,2.07
			c-0.477,0.619-1.101,1.131-1.872,1.537c-0.772,0.406-1.735,0.609-2.893,0.609c-1.482,0-2.72-0.38-3.714-1.142
			c-0.995-0.761-1.613-1.882-1.857-3.364L138.071,46.743z"/>
		<path fill="#B7B7B7" d="M160.113,49.148h11.539v2.009h-13.73V29.602h13.365v2.009h-11.173v7.337h10.442v2.009h-10.442V49.148z"/>
		<path fill="#B7B7B7" d="M187.756,51.157h-2.192V31.611h-7.215v-2.009h16.623v2.009h-7.216V51.157z"/>
		<path fill="#B7B7B7" d="M224.199,40.379c0,1.644-0.285,3.157-0.854,4.537c-0.568,1.38-1.354,2.573-2.359,3.577
			c-1.004,1.005-2.191,1.792-3.562,2.359c-1.369,0.568-2.855,0.853-4.459,0.853s-3.09-0.284-4.46-0.853
			c-1.37-0.568-2.558-1.354-3.562-2.359c-1.005-1.004-1.792-2.197-2.359-3.577c-0.569-1.38-0.853-2.893-0.853-4.537
			s0.284-3.156,0.853-4.536c0.568-1.38,1.354-2.573,2.359-3.577c1.004-1.005,2.192-1.791,3.562-2.36
			c1.371-0.568,2.857-0.852,4.46-0.852s3.09,0.284,4.459,0.852c1.371,0.569,2.559,1.355,3.562,2.36
			c1.006,1.004,1.791,2.197,2.359,3.577C223.914,37.224,224.199,38.735,224.199,40.379z M221.824,40.379
			c0-1.238-0.203-2.42-0.609-3.547s-0.988-2.116-1.75-2.968s-1.689-1.532-2.785-2.04c-1.098-0.507-2.336-0.761-3.715-0.761
			c-1.381,0-2.619,0.254-3.714,0.761c-1.096,0.507-2.025,1.187-2.786,2.04c-0.761,0.853-1.345,1.842-1.75,2.968
			c-0.406,1.126-0.609,2.309-0.609,3.547c0,1.238,0.203,2.42,0.609,3.547c0.406,1.126,0.99,2.116,1.75,2.969
			c0.761,0.853,1.69,1.533,2.786,2.04c1.095,0.508,2.333,0.761,3.714,0.761c1.379,0,2.617-0.253,3.715-0.761
			c1.096-0.507,2.023-1.187,2.785-2.04s1.344-1.842,1.75-2.969S221.824,41.618,221.824,40.379z"/>
	</g>
</g>
</svg>
