<?xml version="1.0" encoding="utf-8"?>
<!-- Generator: Adobe Illustrator 21.0.0, SVG Export Plug-In . SVG Version: 6.00 Build 0)  -->
<svg version="1.1" id="Camada_1" xmlns="http://www.w3.org/2000/svg" xmlns:xlink="http://www.w3.org/1999/xlink" x="0px" y="0px"
	 viewBox="0 0 54 54.1" style="enable-background:new 0 0 54 54.1;" xml:space="preserve">
<style type="text/css">
	.st0{fill:url(#SVGID_1_);}
	.st1{fill:url(#SVGID_2_);}
</style>
<g>
	<linearGradient id="SVGID_1_" gradientUnits="userSpaceOnUse" x1="27.0131" y1="-8.3624" x2="27.0131" y2="43.7912">
		<stop  offset="0" style="stop-color:#0A72B8"/>
		<stop  offset="1" style="stop-color:#22B3E8"/>
	</linearGradient>
	<path class="st0" d="M0,54.1c1-3.6,1.9-7.1,2.9-10.6c0.3-1,0.5-1.9,0.8-2.9c0.1-0.2,0-0.6-0.1-0.8C1,35.3-0.1,30.4,0.3,25.1
		C1,16.3,5,9.4,12.3,4.5c4.9-3.3,10.3-4.8,16.2-4.4c10.6,0.8,18.5,6,22.9,15.6c4.3,9.4,3.3,18.6-2.8,27c-4.3,6.1-10.4,9.6-17.8,10.7
		c-5.7,0.9-11.1-0.1-16.3-2.8c-0.2-0.1-0.6-0.1-0.8-0.1C9.4,51.7,5,52.8,0.6,54C0.5,54,0.3,54.1,0,54.1z M6.4,47.8
		c0.2,0,0.2,0,0.3-0.1c2.5-0.6,4.9-1.3,7.4-2c0.5-0.1,0.9-0.1,1.4,0.2c5,3,10.3,3.9,15.9,2.8C43.4,46.3,51.1,35,49,23
		C47.3,12.8,38.5,5,28.2,4.6C22.5,4.3,17.4,6,13,9.6c-5,4.1-7.8,9.5-8.2,16c-0.3,4.8,0.9,9.2,3.5,13.3c0.3,0.5,0.4,0.9,0.2,1.4
		C7.8,42.8,7.1,45.2,6.4,47.8z"/>
	<linearGradient id="SVGID_2_" gradientUnits="userSpaceOnUse" x1="27.0285" y1="-8.3624" x2="27.0285" y2="43.7912">
		<stop  offset="0" style="stop-color:#0A72B8"/>
		<stop  offset="1" style="stop-color:#22B3E8"/>
	</linearGradient>
	<path class="st1" d="M18.3,14.5c1.2-0.3,1.8,0.4,2.2,1.5c0.6,1.6,1.3,3.1,1.9,4.6c0.2,0.5,0.2,1-0.1,1.4c-0.5,0.7-1.1,1.5-1.6,2.2
		c-0.4,0.4-0.4,0.8-0.1,1.3c2.2,3.7,5.3,6.4,9.3,8c0.5,0.2,0.9,0.1,1.3-0.3c0.7-0.8,1.4-1.7,2-2.5c0.4-0.5,0.8-0.7,1.4-0.4
		c1.9,0.9,3.8,1.8,5.7,2.7c0.2,0.1,0.4,0.5,0.4,0.8c0,2.8-0.9,4.2-3.9,5.5c-1.7,0.7-3.5,0.5-5.3,0.1c-6.4-1.8-11.2-5.8-15-11.2
		c-1.2-1.7-2.3-3.4-2.7-5.4c-0.6-2.9,0.1-5.4,2.2-7.5C16.5,14.5,17.4,14.4,18.3,14.5z"/>
</g>
</svg>
